<svg xmlns="http://www.w3.org/2000/svg" xml:space="preserve" viewBox="0 0 1633 330">
  <path fill="#ffcb04" d="M210.968 214.842c0-.762-.078-3.06.168-9.182.168-3.487-1.963-9.273-7.052-9.273-5.45 0-9.609 3.836-9.7 9.015-.09 6.121 7.57 2.376 7.57 12.837 0 8.072-5.787 7.568-5.696 9.002.335 4.43 9.273 15.743 11.313 17.267-1.2 1.615-12.256 14.62-12.256 14.62-7.142-9.609-11.65-22.524-12.838-33.67h-2.467s.504 6.29 1.705 10.54c2.377 8.937 4.934 16.492 10.965 26.269l-27.638 34.096-27.716-34.096c6.031-8.33 9.26-14.866 11.727-23.803 1.188-4.171 2.299-11.404 2.221-13.005h-2.725c-1.02 9.944-6.548 24.5-14.026 33.67 0 0-10.797-13.006-12.075-14.62 2.053-1.537 10.965-12.838 11.313-17.268.09-1.447-5.695-1.02-5.695-9.002 0-10.552 7.659-6.793 7.581-12.928-.09-5.101-4.249-8.937-9.7-8.937-5.114 0-7.232 5.695-7.064 9.273.259 6.122.168 8.42.168 9.092 0 4.688-2.13 13.522-8.588 13.522-2.893 0-7.569-7.736-42.517-50.162l41.07-49.168c25.43 10.048 40.14 45.074 40.14 69.82v10.964h2.3c.425-4.34.077-16.919.077-16.919-1.111-28.322-15.473-57.149-38.01-69.56l51.532-62.755 51.44 62.755c-21.942 13.263-37.582 43.627-37.414 71.51 0 0-.595 9.351.258 14.97h2.39c-.685-6.213-.169-13.02-.169-13.02.414-25.597 12.58-56.632 40.05-67.855l40.476 49.245c-34.948 42.336-40.218 50.162-43.124 50.162-6.457 0-7.994-8.834-7.994-13.431v.025z"/>
  <path fill="#1d4899" d="M165.055 0C73.887 0 0 73.9 0 164.977c0 91.078 73.887 164.978 165.055 164.978 91.167 0 164.964-73.9 164.964-164.978C330.02 73.9 256.132 0 165.055 0zm45.913 214.842c0-.762-.078-3.06.168-9.182.168-3.487-1.963-9.273-7.052-9.273-5.45 0-9.609 3.836-9.7 9.015-.09 6.121 7.57 2.376 7.57 12.837 0 8.072-5.787 7.568-5.696 9.002.335 4.43 9.273 15.743 11.313 17.267-1.2 1.615-12.256 14.62-12.256 14.62-7.142-9.609-11.65-22.524-12.838-33.67h-2.467s.504 6.29 1.705 10.54c2.377 8.937 4.934 16.492 10.965 26.269l-27.638 34.096-27.716-34.096c6.031-8.33 9.26-14.866 11.727-23.803 1.188-4.171 2.299-11.404 2.221-13.005h-2.725c-1.02 9.944-6.548 24.5-14.026 33.67 0 0-10.797-13.006-12.075-14.62 2.053-1.537 10.965-12.838 11.313-17.268.09-1.447-5.695-1.02-5.695-9.002 0-10.552 7.659-6.793 7.581-12.928-.09-5.101-4.249-8.937-9.7-8.937-5.114 0-7.232 5.695-7.064 9.273.259 6.122.168 8.42.168 9.092 0 4.688-2.13 13.522-8.588 13.522-2.893 0-7.569-7.736-42.517-50.162l41.07-49.168c25.43 10.048 40.14 45.074 40.14 69.82v10.964h2.3c.425-4.34.077-16.919.077-16.919-1.111-28.322-15.473-57.149-38.01-69.56l51.532-62.755 51.44 62.755c-21.942 13.263-37.582 43.627-37.414 71.51 0 0-.595 9.351.258 14.97h2.39c-.685-6.213-.169-13.02-.169-13.02.414-25.597 12.58-56.632 40.05-67.855l40.476 49.245c-34.948 42.336-40.218 50.162-43.124 50.162-6.457 0-7.994-8.834-7.994-13.431v.025zm41.16 37.08c-4.43.168-14.542 1.265-32.494-12.502l49.93-61.308-104.6-126.194L60.455 178.112l49.904 61.308c-15.73 13.767-28.051 12.592-32.481 12.502-22.873-.168-42.349-20.251-42.349-42.943 0-12.321 4.004-23.557 12.244-30.867-9.002-6.638-12.244-19.554-12.244-29.77 0-25.08 20.496-43.278 44.39-43.278.761 0 6.728.168 9.776.594 7.233 1.098 14.207 5.011 13.87 4.508-6.47-10.72-12.591-24.32-12.837-31.888 0 0-.503-6.974 0-11.391 1.783-14.207 11.133-26.528 19.05-31.461 6.031-3.823 14.026-7.581 24.32-7.581 12.76 0 24.073 3.745 30.957 12.592 6.806-8.834 18.12-12.592 30.867-12.592 10.37 0 18.288 3.745 24.41 7.58 7.916 4.934 17.176 17.255 18.959 31.462.516 4.417 0 11.391 0 11.391-.259 7.568-6.38 21.168-12.747 31.888-.35.516 6.547-3.397 13.767-4.508 3.06-.426 9.092-.594 9.777-.594 23.906 0 44.48 18.197 44.48 43.279 0 10.203-3.32 23.13-12.335 29.769 8.33 7.31 12.334 18.546 12.334 30.867 0 22.705-18.03 42.349-42.439 42.943z"/>
  <path fill="#1d4899" d="M137.416 213.473c-2.466 0-4.417 1.783-4.417 4.082s1.964 4.08 4.417 4.08h55.187c2.466 0 4.417-1.781 4.417-4.08 0-2.3-1.964-4.082-4.417-4.082h-55.187z"/>
  <path fill="#1d4899" d="M175.503 188.56c.594-23.053 11.65-48.47 32.83-65.996l-43.291-52.551v139.715h10.203c-.426-7.736.258-21.168.258-21.168z"/>
  <path fill="#1d4899" d="M165.055 225.472v62.677l21.258-25.52c-6.729-12.838-9.273-24.062-10.63-37.157h-10.628z"/>
  <path fill="#1d4899" d="M141.24 209.741h2.802c.504-3.578.336-11.055.258-12.838-1.11-20.238-16.415-55.78-34.78-60.287l-34.186 41.496c25.171 30.35 27.896 35.968 31.047 35.968 1.615 0 2.713-2.557 2.713-4.158 0-7.581-8.847-16.932-8.847-25.172 0-8.24 7.323-14.374 14.374-14.374 18.275 0 27.212 30.273 26.618 39.378v-.013z"/>
  <path fill="#1d4899" d="m254.686 178.112-34.174-41.496c-18.365 4.507-33.502 35.968-34.703 57.743-.09 1.782-.348 11.817.168 15.395h2.803c-.866-9.183 8.42-39.378 26.605-39.378 7.142 0 14.374 6.548 14.374 14.374 0 8.253-8.846 17.94-8.846 25.508 0 1.614.607 4.326 2.298 4.326 3.152 0 6.303-6.122 31.462-36.472h.013z"/>
  <path fill="#1d4899" d="M133.258 244.612c.168 1.188.168 1.782 2.04 2.376 1.783.762 7.736-15.136 8.163-21.516h-2.545c-2.647 7.129-7.917 16.905-7.658 19.127v.013z"/>
  <path fill="#1d4899" d="M186.894 225.472c.517 6.38 6.303 21.762 8.175 21.439 2.041-.517 1.783-1.46 1.783-2.558-.168-2.208-4.676-11.74-7.4-18.869h-2.558v-.012z"/>
  <path fill="#1d4899" d="M907.725 14.684h-110.67v32.598c11.456 3.384 13.238 8.033 13.664 20.393v34.509c-.193.13-.387.245-.58.375-2.455 1.691-4.418 3.332-5.606 5.23-.646.995-1.085 2.131-1.085 3.384v61.192c0 4.96 2.854 8.304 7.258 10.642v66.228c0 18.081-1.317 24.1-13.664 26.321v33.205h85.11v-33.205c-14.103-3.1-15.007-7.064-15.007-22.485v-39.985h37.48c61.747 0 93.505-25.559 93.505-100.066v-6.6c0-71.007-40.14-91.723-90.405-91.723v-.013zm-51.893 109.572c-9.867 3.823-22.37 8.382-32.714 14.49-4.727 2.79-9.015 5.903-12.399 9.48a31.754 31.754 0 0 0-3.267 4.017v-41.07c0-.323.142-.878.736-1.666.53-.698 1.408-1.524 2.531-2.39.104-.077.194-.154.297-.232 2.545-1.924 6.316-4.055 10.746-6.25.452-.22.943-.453 1.407-.685.724-.349 1.434-.698 2.183-1.046a241.8 241.8 0 0 1 2.544-1.176c7.659-3.513 16.338-7.155 24.152-10.784 5.721-2.673 10.965-5.334 15.097-7.994a44.24 44.24 0 0 0 1.99-1.356 30.465 30.465 0 0 0 2.634-2.131v40.682l-.065.142c-.09.142-.258.375-.58.672-.647.607-1.757 1.343-3.217 2.105-.245.13-.503.271-.762.4-2.854 1.473-6.832 3.061-11.326 4.805l.013-.013zm85.394-2.428c0 37.48-14.542 50.265-44.957 50.705h-29.124v-48.626a35.02 35.02 0 0 0 1.705-.826c2.48-1.253 4.378-2.39 5.696-3.914.697-.813 1.252-1.834 1.252-3.06v-47.67a1.64 1.64 0 0 0-.064-.44c-.09-2.272-.8-4.352-2.04-6.237-1.499-2.247-3.681-4.236-6.33-6.057h29.331c32.185 0 44.518 15.86 44.518 48.044v18.08h.013z"/>
  <path fill="#1d4899" d="M773.24 254.091v-79.673c1.86-1.2 3.435-2.66 4.585-4.468 1.059-1.731 1.679-3.733 1.808-6.019.026-.129.038-.271.038-.4v-.271c0-.078.013-.155.013-.233v-22.756s0-.052-.013-.09v-31.307c0-1.201-.348-2.338-.93-3.358-1.084-1.898-2.828-3.616-5.05-5.347-.141-.116-.296-.22-.451-.336V14.684h-62.6v30.377c6.82 1.924 9.906 3.99 11.378 8.536-2.234 1.214-4.12 2.713-5.45 4.637-1.278 1.873-1.989 4.094-2.027 6.677 0 .078-.026.155-.026.233v48.418c-13.277-6.87-27.755-11.249-47.502-11.249-43.227 0-65.686 27.316-65.686 74.042v57.46c0 49.826 19.837 78.046 67.882 78.046 19.837 0 37.04-6.626 55.56-19.864v16.764h61.282V275.26c-11.455-3.1-12.798-7.064-12.798-21.18l-.013.012zm-49.8 4.404c-11.482 9.7-22.925 14.543-36.163 14.543-22.06 0-35.284-9.7-35.284-49.8v-33.205c0-29.537 7.064-48.923 34.406-48.923 13.664 0 27.78 5.722 37.04 13.238v104.16-.013zm38.654-121.324c-9.286-6.25-20.51-10.926-29.33-14.84-3.642-1.614-6.845-3.086-9.325-4.442a47.22 47.22 0 0 1-1.485-.84c-1.292-.788-2.247-1.524-2.803-2.13a2.86 2.86 0 0 1-.53-.698l-.09-.297V72.66a32.394 32.394 0 0 0 1.925 1.744c.89.736 1.885 1.46 2.918 2.195 3.513 2.454 7.762 4.908 12.386 7.362 8.537 4.533 18.223 9.092 25.934 13.38.387.22.787.439 1.175.646 3.978 2.247 7.336 4.417 9.609 6.367.27.232.516.465.749.697.749.723 1.356 1.395 1.73 1.99.53.813.698 1.407.698 1.833v41.406a33.189 33.189 0 0 0-2.428-3.332 45.634 45.634 0 0 0-1.498-1.705c-2.764-2.97-6.058-5.644-9.648-8.072h.013z"/>
  <path fill="#1d4899" d="M449.045 176.95h32.623c33.063 0 45.423 14.542 45.423 46.3 0 31.758-14.103 45.397-44.983 45.836h-33.063V176.95zm0-40.58V55.25h29.098c30.001 0 43.666 9.7 43.666 40.541 0 27.341-12.36 40.566-42.35 40.566h-30.401l-.013.013zM379.38 308.761h116.404c59.964 0 89.94-24.242 89.94-82.463 0-39.223-13.664-63.904-50.704-71.42 30.44-9.26 43.666-29.963 43.666-67.908 0-49.8-26.463-72.299-87.306-72.299H379.394V47.27c12.36 2.635 13.664 6.6 13.664 24.242v179.377c0 18.082-1.317 21.181-13.664 23.803v34.057l-.013.013z"/>
  <path fill="#1d4899" d="M1592.496 237.508h15.718v-7.038c-2.312-.646-2.596-1.46-2.596-4.417v-22.666c1.485-1.666 4.443-3.681 7.684-3.681 4.611 0 6.548 2.221 6.548 8.033v18.314c0 4.96.117 7.478.672 11.455h12.476v-7.038c-2.131-.646-2.506-1.46-2.506-4.417v-20.91c0-5.992-1.666-13.586-13.108-13.586-4.999 0-8.886 1.872-12.011 4.442v-3.797h-12.851v7.039c2.221.646 2.48 1.485 2.57 4.352v22.46c0 2.944-.349 3.771-2.57 4.417v7.038h-.026zm-29.498-27.806v-.852c0-6.664 2.131-10.345 7.594-10.345 5.463 0 7.22 3.771 7.297 9.518v1.666H1563l-.001.013zm25.443 7.297v-7.775c0-11.094-3.242-17.939-17.94-17.939-12.76 0-18.106 5.347-18.106 17.087v12.85c0 11.095 4.326 17.203 18.572 17.203 7.478 0 12.476-1.575 17.177-4.727v-10.81h-10.63v3.036c0 3.797-2.13 5.282-6.547 5.282-5.631 0-7.969-3.332-7.969-9.816v-4.417h25.443V217zm-80.616 20.51h15.717v-7.04c-2.311-.645-2.57-1.459-2.57-4.416v-22.666c1.46-1.666 4.443-3.681 7.659-3.681 4.65 0 6.574 2.221 6.574 8.033v18.314c0 4.96.09 7.478.646 11.455h12.476v-7.038c-2.106-.646-2.48-1.46-2.48-4.417v-20.91c0-5.992-1.666-13.586-13.109-13.586-4.998 0-8.886 1.872-12.037 4.442v-3.797h-12.85v7.039c2.221.646 2.518 1.485 2.596 4.352v22.46c0 2.944-.375 3.771-2.596 4.417v7.038h-.026zm-44.377 0h15.718v-7.04c-2.312-.645-2.57-1.459-2.57-4.416v-22.666c1.46-1.666 4.443-3.681 7.659-3.681 4.65 0 6.573 2.221 6.573 8.033v18.314c0 4.96.09 7.478.646 11.455h12.476v-7.038c-2.105-.646-2.48-1.46-2.48-4.417v-20.91c0-5.992-1.666-13.586-13.108-13.586-4.998 0-8.886 1.872-12.037 4.442v-3.797h-12.85v7.039c2.22.646 2.518 1.485 2.595 4.352v22.46c0 2.944-.374 3.771-2.596 4.417v7.038h-.026zm-19.398 0h15.718v-7.04c-2.312-.645-2.596-1.459-2.596-4.416v-33.85h-13.11v7.038c2.222.646 2.597 1.485 2.597 4.443v22.369c0 2.944-.375 3.771-2.596 4.417v7.038h-.013zm13.328-56.375c0-3.616-2.686-6.109-6.186-6.109s-6.186 2.48-6.186 6.109c0 3.887 2.57 6.277 6.186 6.277s6.186-2.519 6.186-6.277m-69.819 56.374h15.886v-7.038c-2.506-.53-2.777-1.46-2.777-4.417v-13.406c0-7.685 3.978-11.365 8.033-11.365.762 0 1.201.09 1.963.18v-9.905c-.852-.181-1.407-.181-2.04-.181-4.353 0-6.923 3.035-8.408 6.109v-5.283h-12.644v7.039c2.222.646 2.48 1.485 2.57 4.443v22.369c0 2.944-.348 3.771-2.57 4.417v7.038h-.013zm-29.498-27.806v-.852c0-6.664 2.131-10.345 7.594-10.345 5.463 0 7.181 3.771 7.297 9.518v1.666h-14.89v.013zm25.404 7.297v-7.775c0-11.094-3.216-17.939-17.9-17.939-12.76 0-18.133 5.347-18.133 17.087v12.85c0 11.095 4.353 17.203 18.572 17.203 7.504 0 12.502-1.575 17.203-4.727v-10.81h-10.63v3.036c0 3.797-2.13 5.282-6.573 5.282-5.644 0-7.943-3.332-7.943-9.816v-4.417h25.417l-.013.026zm-53.042-14.594v24.565c-2.39 2.04-4.792 3.06-7.568 3.06-4.65 0-7.414-2.04-7.414-10.46v-9.7c0-6.186 1.486-10.254 7.22-10.254 2.867 0 5.838 1.2 7.775 2.776m10.448-26.54h-13.147v7.038c2.311.646 2.596 1.46 2.686 4.353v7.659c-3.332-2.015-6.742-3.423-11.83-3.423-9.054 0-13.755 5.721-13.755 15.537v14.775c0 10.461 4.146 16.363 14.22 16.363 4.145 0 7.775-1.369 11.65-4.146v3.5h12.824v-7.038c-2.39-.646-2.66-1.46-2.66-4.417v-50.214l.012.013zm-80.616 61.656h15.718v-7.038c-2.312-.646-2.57-1.46-2.57-4.417v-22.666c1.46-1.666 4.442-3.681 7.658-3.681 4.65 0 6.574 2.221 6.574 8.033v18.314c0 4.96.09 7.478.646 11.455h12.476v-7.038c-2.105-.646-2.48-1.46-2.48-4.417v-20.91c0-5.992-1.666-13.586-13.109-13.586-4.998 0-8.885 1.872-12.037 4.442v-3.797h-12.85v7.039c2.221.646 2.505 1.485 2.596 4.352v22.46c0 2.944-.375 3.771-2.596 4.417v7.038h-.026zm-6.2-56.374c0-3.616-2.57-6.109-6.185-6.109-3.617 0-6.187 2.48-6.187 6.109 0 3.887 2.596 6.277 6.187 6.277 3.59 0 6.186-2.519 6.186-6.277m-.09 11.068h-22.809v-3.68c0-3.423 1.201-5.812 4.611-6.11.736 0 1.757.091 2.131.298v-7.039c-2.312-.555-3.978-.814-6.109-.814-9.053 0-11.184 5.515-11.184 12.567v4.791h-2.867v7.594h2.867v26.257c0 2.944-.297 3.77-2.596 4.417v7.038h15.808v-7.038c-2.312-.646-2.57-1.46-2.66-4.417v-26.257h8.588c3.035 0 3.59.814 3.59 4.443v21.814c0 2.944-.258 3.77-2.57 4.417v7.038h15.808v-7.038c-2.312-.646-2.596-1.46-2.596-4.417v-33.85l-.013-.014zm-52.023 10.203v24.565c-2.428 2.04-4.817 3.06-7.594 3.06-4.61 0-7.387-2.04-7.387-10.46v-9.7c0-6.186 1.485-10.254 7.22-10.254 2.867 0 5.811 1.2 7.774 2.776m10.423-26.54h-13.109v7.038c2.312.646 2.596 1.46 2.686 4.353v7.659c-3.332-2.015-6.741-3.423-11.83-3.423-9.053 0-13.78 5.721-13.78 15.537v14.775c0 10.461 4.171 16.363 14.258 16.363 4.146 0 7.736-1.369 11.624-4.146v3.5h12.85v-7.038c-2.39-.646-2.686-1.46-2.686-4.417v-50.214l-.013.013zm-52.578 39.752v9.984c-1.963 2.015-5.088 4.443-8.498 4.443-3.06 0-5.282-1.757-5.282-4.818 0-3.68 2.777-5.347 9.35-7.943l4.443-1.666h-.013zm-22.55-9.234h9.984v-2.983c0-3.423 1.55-4.882 6.548-4.882s6.018 2.777 6.018 8.033v1.369l-11.274 3.978c-7.853 2.686-13.316 6.315-13.316 14.258 0 7.943 4.055 12.295 12.386 12.295 4.817 0 8.963-2.221 12.592-5.282v4.352h12.644v-7.038c-2.222-.646-2.596-1.46-2.596-4.417v-19.8c0-10.422-4.146-14.955-15.718-14.955-7.18 0-11.92 1.292-17.267 3.797v11.275zm-21.18 31.138h15.718v-7.038c-2.312-.646-2.596-1.46-2.596-4.417v-26.257h5.553v-7.594h-5.553v-3.68c0-4.262 1.782-6.11 5.282-6.11.814 0 1.46.091 2.015.298v-7.039a27.825 27.825 0 0 0-6.626-.814c-6.741 0-11.275 3.423-11.275 12.011v5.347h-2.893v7.594h2.893v26.257c0 2.944-.297 3.77-2.505 4.417v7.038l-.013-.013zm-28.659-53.042h6.2c6.741 0 9.35 3.332 9.35 10.074v3.771c0 7.853-3.06 10.539-9.44 10.63h-6.11v-24.475zm-14.684 53.042h17.849v-7.477c-2.984-.646-3.152-1.486-3.152-4.727v-7.853h7.853c12.94 0 19.605-5.347 19.605-20.974v-1.369c0-14.89-8.408-19.243-18.96-19.243h-23.195v7.503c2.312.465 2.777 1.292 2.867 3.888v37.802c0 3.797-.258 4.534-2.867 4.998v7.478-.026z"/>
  <path fill="#1d4899" d="M1351.423 141.51h15.898v-7.012c-2.48-.556-2.75-1.486-2.75-4.443v-13.406c0-7.685 3.977-11.365 8.033-11.365.736 0 1.2.09 1.924.18V95.56c-.814-.181-1.369-.181-2.015-.181-4.352 0-6.948 3.035-8.407 6.109v-5.283h-12.683v7.04c2.221.645 2.505 1.484 2.596 4.442v22.369c0 2.944-.375 3.771-2.596 4.443v7.012zm-29.46-27.806v-.852c0-6.664 2.132-10.345 7.569-10.345 5.437 0 7.22 3.771 7.297 9.518v1.666h-14.865v.013zm25.417 7.31v-7.775c0-11.094-3.241-17.939-17.939-17.939-12.76 0-18.107 5.347-18.107 17.087v12.85c0 11.095 4.353 17.203 18.572 17.203 7.478 0 12.476-1.575 17.177-4.727v-10.81h-10.603v3.036c0 3.797-2.13 5.282-6.574 5.282-5.644 0-7.942-3.332-7.942-9.816v-4.417h25.416v.026zm-53.055-14.607v24.565c-2.428 2.04-4.817 3.06-7.594 3.06-4.61 0-7.387-2.04-7.387-10.46v-9.7c0-6.186 1.485-10.254 7.22-10.254 2.866 0 5.811 1.2 7.774 2.776m10.423-26.54h-13.11v7.039c2.313.645 2.597 1.485 2.687 4.352v7.659c-3.332-2.015-6.742-3.423-11.83-3.423-9.054 0-13.78 5.721-13.78 15.537v14.775c0 10.461 4.145 16.363 14.219 16.363 4.172 0 7.775-1.369 11.65-4.145v3.5h12.85v-7.013c-2.39-.672-2.686-1.486-2.686-4.443V79.84v.013zm-71.072 26.553v24.565c-2.39 2.04-4.817 3.06-7.594 3.06-4.61 0-7.388-2.04-7.388-10.46v-9.7c0-6.186 1.486-10.254 7.22-10.254 2.867 0 5.812 1.2 7.775 2.776m10.448-26.54h-13.147v7.039c2.311.645 2.595 1.485 2.686 4.352v7.659c-3.332-2.015-6.742-3.423-11.83-3.423-9.054 0-13.78 5.721-13.78 15.537v14.775c0 10.461 4.17 16.363 14.257 16.363 4.146 0 7.737-1.369 11.624-4.145v3.5h12.85v-7.013c-2.389-.672-2.66-1.486-2.66-4.443V79.84v.013zm-80.616 61.657h15.718v-7.013c-2.312-.672-2.57-1.486-2.57-4.443v-22.666c1.459-1.666 4.417-3.681 7.658-3.681 4.61 0 6.574 2.221 6.574 8.033v18.314c0 4.96.09 7.478.646 11.456h12.476v-7.013c-2.131-.672-2.48-1.486-2.48-4.443v-20.91c0-5.992-1.666-13.586-13.147-13.586-4.96 0-8.847 1.872-12.012 4.442v-3.797h-12.85v7.04c2.221.645 2.505 1.484 2.596 4.351v22.46c0 2.944-.375 3.771-2.596 4.443v7.013h-.013zm-3.797 0v-7.013c-2.312-.672-2.57-1.486-2.57-4.353v-33.94h-13.238v7.038c2.312.646 2.686 1.485 2.686 4.443v22.73c-1.369 1.576-4.352 3.707-7.775 3.707-4.145 0-5.992-2.39-5.992-8.15v-18.378c0-4.998 0-7.387-.646-11.39h-12.592v7.038c2.312.646 2.596 1.485 2.596 4.443v21.349c0 7.658 3.332 13.108 12.566 13.108 5.166 0 8.886-1.924 12.127-4.61v3.978h12.838zm-71.175-27.626h6.845c6.922 0 9.518 3.035 9.518 9.7 0 6.664-2.944 9.518-9.44 9.608h-6.923v-19.308zm.013-8.498V88.391h6.109c6.276 0 9.144 2.014 9.144 8.498 0 5.721-2.596 8.498-8.886 8.498h-6.367zm-14.594 36.124h24.383c12.593 0 18.87-5.089 18.87-17.294 0-8.214-2.868-13.406-10.63-14.955 6.367-1.964 9.144-6.316 9.144-14.259 0-10.422-5.553-15.162-18.288-15.162h-23.48v7.504c2.597.555 2.868 1.369 2.868 5.088v36.602c0 3.797-.258 4.442-2.867 4.998v7.477z"/>
  <path fill="#1d4899" d="m1424.044 190.265-8.214.13v-5.257h8.214l-4.145-6.974 4.507-2.687 4.055 7.104 4.017-7.104 4.507 2.687-4.236 6.974h8.214v5.256l-8.214-.129 4.327 6.974-4.585 2.829-4.017-7.246-4.055 7.246-4.507-2.829 4.145-6.974h-.013z"/>
  <path fill="#ffcb04" d="M855.832 124.527c-9.867 3.823-22.37 8.382-32.714 14.49-4.727 2.79-9.015 5.903-12.399 9.48a31.754 31.754 0 0 0-3.267 4.017v-41.07c0-.323.142-.878.736-1.666.53-.697 1.408-1.524 2.531-2.39.104-.077.194-.154.297-.232 2.545-1.924 6.316-4.055 10.746-6.25.452-.22.943-.453 1.407-.685.724-.349 1.434-.697 2.183-1.046A241.8 241.8 0 0 1 827.896 98c7.659-3.513 16.338-7.155 24.152-10.785 5.721-2.673 10.965-5.334 15.097-7.994a44.24 44.24 0 0 0 1.99-1.356 30.465 30.465 0 0 0 2.634-2.131v40.682l-.065.143c-.09.142-.258.374-.58.671-.647.607-1.757 1.343-3.217 2.105-.245.13-.503.272-.762.4-2.854 1.473-6.832 3.062-11.326 4.805l.013-.013z"/>
  <path fill="#ffcb04" d="M762.094 137.171c-9.286-6.25-20.51-10.926-29.33-14.84-3.642-1.614-6.845-3.086-9.325-4.442a47.22 47.22 0 0 1-1.485-.84c-1.292-.788-2.247-1.524-2.803-2.13a2.86 2.86 0 0 1-.53-.698l-.09-.297V72.66a32.394 32.394 0 0 0 1.925 1.744c.89.736 1.885 1.46 2.918 2.195 3.513 2.454 7.762 4.908 12.386 7.362 8.537 4.533 18.223 9.092 25.934 13.38.387.22.787.439 1.175.646 3.978 2.247 7.336 4.417 9.609 6.367.27.232.516.465.749.697.749.723 1.356 1.395 1.73 1.99.53.813.698 1.407.698 1.833v41.406a33.189 33.189 0 0 0-2.428-3.332 45.634 45.634 0 0 0-1.498-1.705c-2.764-2.97-6.058-5.644-9.648-8.072h.013z"/>
  <path fill="#ffcb04" d="M252.09 251.87c-4.43.168-14.543 1.266-32.495-12.502l49.93-61.308-104.6-126.193L60.418 178.06l49.904 61.308C94.59 253.136 82.269 251.96 77.839 251.87c-22.873-.168-42.349-20.25-42.349-42.943 0-12.32 4.004-23.557 12.244-30.867-9.002-6.638-12.244-19.553-12.244-29.77 0-25.08 20.497-43.278 44.39-43.278.762 0 6.728.168 9.776.595 7.233 1.097 14.207 5.01 13.871 4.507-6.47-10.72-12.592-24.32-12.837-31.888 0 0-.504-6.974 0-11.39 1.782-14.207 11.132-26.528 19.05-31.462 6.03-3.823 14.025-7.581 24.318-7.581 12.76 0 24.074 3.745 30.958 12.592 6.806-8.834 18.12-12.592 30.867-12.592 10.37 0 18.288 3.745 24.41 7.581 7.917 4.934 17.177 17.255 18.959 31.461.517 4.417 0 11.391 0 11.391-.258 7.569-6.38 21.168-12.747 31.888-.349.516 6.548-3.397 13.767-4.507 3.061-.427 9.093-.595 9.777-.595 23.906 0 44.48 18.198 44.48 43.279 0 10.203-3.32 23.13-12.334 29.77 8.33 7.31 12.334 18.545 12.334 30.866 0 22.705-18.03 42.349-42.44 42.943z"/>
</svg>
