<svg xmlns="http://www.w3.org/2000/svg" viewBox="0 0 2000 2000">
  <path fill="#1d4899" d="M0 1000.023C0 447.935 447.769 0 1000.262 0 1552.209 0 2000 447.935 2000 1000.023c0 552.054-447.791 999.977-999.738 999.977C447.769 2000 0 1552.077 0 1000.023"/>
  <path fill="#ffcb04" d="M1000.214 1797.409l-167.939-206.695c36.529-50.487 56.122-90.156 71.065-144.273 7.235-25.315 13.948-69.101 13.45-78.887h-16.533c-6.215 60.333-39.708 148.484-85.014 204.097 0 0-65.468-78.839-73.225-88.614 12.43-9.288 66.464-77.843 68.552-104.699.546-8.743-34.537-6.157-34.537-54.604 0-63.939 46.397-41.211 45.899-78.341-.546-30.926-25.761-54.142-58.756-54.142-30.979 0-43.835 34.544-42.791 56.229 1.542 37.082 1.044 51.033 1.044 55.113 0 28.376-12.904 81.948-52.066 81.948-17.506 0-45.852-46.858-257.697-304.064l248.921-297.99c154.11 60.855 243.251 273.221 243.251 423.248v66.467h13.948c2.562-26.312.498-102.564.498-102.564-6.713-171.653-93.767-346.402-230.348-421.647l312.277-380.412 311.779 380.412c-132.952 80.382-227.762 264.407-226.742 433.462 0 0-3.605 56.692 1.565 90.75h14.446c-4.128-37.629-1.044-78.887-1.044-78.887 2.538-155.129 76.237-343.271 242.753-411.327l245.292 298.489c-211.799 256.661-243.75 304.064-261.326 304.064-39.115 0-48.438-53.572-48.438-81.402 0-4.626-.498-18.577 1.044-55.659 1.044-21.14-11.86-56.229-42.744-56.229-32.995 0-58.257 23.216-58.755 54.64-.546 37.083 45.875 14.401 45.875 77.843 0 48.945-35.059 45.861-34.561 54.604 2.04 26.856 56.17 95.411 68.6 104.699-7.307 9.775-74.245 88.614-74.245 88.614-43.289-58.233-70.639-136.575-77.85-204.097h-14.92s3.083 38.138 10.318 63.903c14.397 54.153 29.888 99.967 66.464 159.257"/>
  <path fill="#1d4899" d="M832.772 1294.835h334.456c14.943 0 26.804 10.818 26.804 24.733 0 13.939-11.86 24.758-26.804 24.758H832.772c-14.968 0-26.804-10.818-26.804-24.758.001-13.915 11.837-24.733 26.804-24.733M1000.214 425.277l262.347 318.536c-128.351 106.183-195.384 260.291-198.966 400.01 0 0-4.128 81.426-1.542 128.33h-61.839M1000.214 1367.554h64.425c8.23 79.385 23.673 147.44 64.424 225.225l-128.849 154.689M663.718 828.94l-207.221 251.536c152.569 183.979 169.103 218.036 188.149 218.036 9.773 0 16.486-15.493 16.486-25.221 0-45.908-53.655-102.611-53.655-152.601 0-47.451 44.38-87.144 87.147-87.144 110.798 0 164.88 183.516 161.299 238.653h17.03c3.037-21.638 2.04-67.013 1.542-77.843-6.735-122.634-99.458-338.108-210.777-365.416"/>
  <path fill="#1d4899" d="M1336.33 828.94l207.103 251.536c-152.521 183.979-171.616 221.12-190.688 221.12-10.224 0-13.9-16.489-13.9-26.264 0-45.933 53.607-104.652 53.607-154.642 0-47.451-43.835-87.144-87.101-87.144-110.228 0-166.469 183.018-161.25 238.653h-17.031c-3.132-21.638-1.59-82.445-1.044-93.276 7.235-131.946 98.985-322.675 210.304-349.983M853.955 1367.554h15.441c-2.586 38.684-38.664 135.044-49.457 130.418-11.409-3.618-11.409-7.248-12.382-14.438-1.541-13.464 30.363-72.729 46.398-115.98M1148.157 1367.554h-15.537c3.132 38.684 38.19 131.912 49.552 129.92 12.358-3.12 10.816-8.826 10.816-15.54-1.043-13.334-28.345-71.129-44.831-114.38"/>
  <path fill="#ffcb04" d="M812.61 169.624c77.328 0 145.855 22.741 187.604 76.313 41.25-53.572 109.801-76.313 187.059-76.313 62.882 0 110.821 22.741 147.967 45.921 47.938 29.894 104.061 104.629 114.877 190.729 3.132 26.785 0 69.017 0 69.017-1.518 45.908-38.664 128.354-77.28 193.314-2.063 3.132 39.66-20.629 83.448-27.272 18.549-2.622 55.126-3.642 59.253-3.642 144.884 0 269.604 110.347 269.604 262.366 0 61.876-20.162 140.217-74.742 180.42 50.477 44.283 74.742 112.387 74.742 187.11 0 137.606-109.303 256.696-257.198 260.326-26.852 1.044-88.146 7.687-196.879-75.803l302.553-371.634-633.902-764.953-633.356 764.954 302.457 371.634c-95.331 83.489-170.026 76.301-196.831 75.803-138.621-1.044-256.653-122.72-256.653-260.326 0-74.724 24.219-142.827 74.197-187.11-54.58-40.203-74.197-118.544-74.197-180.42 0-152.02 124.247-262.366 269.012-262.366 4.602 0 40.752 1.02 59.254 3.642 43.835 6.644 86.057 30.404 84.017 27.272-39.186-64.96-76.261-147.406-77.802-193.314 0 0-3.084-42.231 0-69.017 10.816-86.1 67.483-160.835 115.446-190.729 36.576-23.181 85.013-45.922 147.35-45.922"/>
</svg>
