<svg xmlns="http://www.w3.org/2000/svg" xml:space="preserve" stroke-linejoin="round" stroke-miterlimit="2" clip-rule="evenodd" viewBox="0 0 410 110">
  <defs>
    <style type="text/css">
      .blue-klilie {
        fill: #0e4278;
      }
      .blue-font {
        fill: #0e4278;
      }
      .yellow {
        fill: #ffd208
      }

      @media (prefers-color-scheme: dark) {
        .blue-klilie {
          fill: #000000;
        }
        .blue-font {
          fill: #ffffff;
        }
        .yellow {
          fill: #ffffff;
        }
      }
    </style>
  </defs>
  <path class="blue-klilie" d="M85.039 42.887c0 23.483-19.037 42.52-42.52 42.52S0 66.37 0 42.887 19.036.367 42.519.367s42.52 19.037 42.52 42.52"/>
  <path class="yellow" d="M42.509 54.775a.01.01 0 0 0 .01-.01V21.789a.01.01 0 0 0-.01-.008l-.39.192-.014.014-9.287 10.579q-.006.009-.009.017s-.166.491-.001.7c5.624 7.153 8.682 21.482 8.682 21.482q.004.009.012.01z"/>
  <path class="yellow" d="M38.947 69.76a.55.55 0 0 0 .101.528c.587.7 2.2 2.575 3.037 3.587.113.136.424.203.424.203q.01 0 .01-.008V60.287q0-.01-.01-.01h-2.158a.01.01 0 0 0-.011.01s-.94 8.111-1.393 9.473"/>
  <path class="yellow" d="M72.048 47.631c2.046-1.693 2.771-4.599 2.771-7.044 0-6.257-5.135-10.798-11.099-10.798-.169 0-1.675.042-2.439.149-1.053.16-2.078.56-2.73.84-.243.104-.485-.147-.368-.383.809-1.638 2.794-5.789 2.844-7.291 0 0 .129-1.739 0-2.842-.445-3.543-2.756-6.619-4.73-7.85-1.529-.954-3.503-1.89-6.091-1.89-3.045 0-5.751.858-7.466 2.864a.287.287 0 0 1-.441 0c-1.715-2.006-4.422-2.864-7.466-2.864-2.589 0-4.563.936-6.091 1.89-1.974 1.231-4.286 4.307-4.73 7.85-.13 1.103 0 2.842 0 2.842.05 1.503 2.035 5.655 2.845 7.291a.283.283 0 0 1-.366.384c-.652-.279-1.678-.681-2.733-.841-.764-.107-2.27-.149-2.44-.149-5.964 0-11.099 4.541-11.099 10.798 0 2.445.726 5.352 2.772 7.045a.286.286 0 0 1 .018.432c-1.908 1.836-2.79 4.7-2.79 7.651 0 5.664 4.499 10.566 10.589 10.716 1.009.039 3.204.267 6.987-2.312a1.133 1.133 0 0 0 .235-1.667c-2.934-3.469-11.785-13.869-11.785-13.869a1.13 1.13 0 0 1-.011-1.455l25.192-30.559a1.417 1.417 0 0 1 2.187 0l25.218 30.558c.35.424.346 1.038-.011 1.457 0 0-8.869 10.392-11.809 13.866a1.134 1.134 0 0 0 .235 1.67c3.782 2.578 5.975 2.35 6.985 2.311 6.089-.15 10.588-5.052 10.588-10.716 0-2.951-.881-5.814-2.788-7.651a.286.286 0 0 1 .017-.433"/>
  <path class="yellow" d="M63.533 48.205c-.388.451-.917 1.065-1.526 1.769-1.43 1.656-3.314 3.837-4.804 5.594-.4.472-.846.365-.984-.239-.125-.545-.072-1.207.019-2.01.14-1.235.332-2.926-1.401-3.429-1.06-.304-2.183.148-3.091 1.236-.73.872-1.299 2.133-1.579 3.649h-1.131c.268-8.692 3.781-14.545 5.619-17.018a.567.567 0 0 1 .893-.019l7.992 9.74a.565.565 0 0 1-.007.727m-11.221 9.321a1.5 1.5 0 0 1-.535 1.138 1.5 1.5 0 0 1-.966.363H34.226a1.5 1.5 0 0 1-.965-.362 1.5 1.5 0 0 1-.536-1.139 1.5 1.5 0 0 1 1.501-1.501h16.585a1.5 1.5 0 0 1 1.501 1.501m-1.034 5.968-1.018 1.212c-.153.182-.452.108-.496-.126-.252-1.356-.423-2.901-.538-4.303h1.201c.22.851.523 1.726.929 2.617a.57.57 0 0 1-.078.6m-5.626 6.265a.55.55 0 0 1-.1.528l-2.425 2.886-.172.204a.565.565 0 0 1-.87-.002c-.837-1.012-1.95-2.387-2.537-3.087a.55.55 0 0 1-.101-.528c.453-1.362 1.479-4.851 1.894-9.483h2.417c.415 4.631 1.441 8.12 1.894 9.482M35.273 64.58c-.043.234-.342.308-.495.126l-1.018-1.212a.56.56 0 0 1-.077-.6c.405-.891.708-1.766.928-2.617h1.202c-.116 1.402-.287 2.946-.54 4.303m-5.074-14.689c-1.73.502-1.538 2.193-1.398 3.428.091.804.144 1.467.018 2.013a.565.565 0 0 1-.982.238c-1.483-1.749-3.359-3.921-4.783-5.57-.618-.716-1.156-1.338-1.549-1.796a.564.564 0 0 1-.007-.727l7.992-9.739a.566.566 0 0 1 .893.02c1.839 2.473 5.352 8.325 5.619 17.017h-1.131c-.28-1.516-.849-2.777-1.578-3.65-.91-1.087-2.037-1.537-3.094-1.234m3.609-16.608a.564.564 0 0 1 .004-.709l8.299-10.095a.56.56 0 0 1 .408-.2.56.56 0 0 1 .468.2l8.3 10.095c.169.205.169.5.005.709-5.624 7.153-7.446 14.92-7.685 21.492h-2.115c-.238-6.572-2.06-14.339-7.684-21.492m31.445 13.682L56.17 35.896a1.392 1.392 0 0 0-2.142-.011c-1.559 1.873-6.344 8.463-6.65 18.89h-2.049c.246-6.457 2.051-14.097 7.658-20.97a1.396 1.396 0 0 0-.001-1.762l-9.361-11.386a1.43 1.43 0 0 0-1.076-.508c-.417 0-.809.185-1.075.508l-9.361 11.386a1.396 1.396 0 0 0 0 1.763c5.606 6.872 7.411 14.512 7.657 20.969h-2.11c-.306-10.43-5.092-17.019-6.651-18.891a1.38 1.38 0 0 0-1.064-.497h-.005a1.39 1.39 0 0 0-1.072.509l-9.083 11.069a1.39 1.39 0 0 0 .012 1.78 392 392 0 0 0 2.008 2.333c1.657 1.92 3.928 4.548 5.472 6.386a1.39 1.39 0 0 0 1.922.201c1.609-1.291 1.396-3.164 1.241-4.532-.161-1.417-.073-1.573.217-1.657.566-.162 1.147.441 1.369.708.494.59.951 1.552 1.196 2.783a2.75 2.75 0 0 0-1.747 2.559 2.75 2.75 0 0 0 1.512 2.453 14.5 14.5 0 0 1-1.011 2.663 1.39 1.39 0 0 0 .18 1.508l2.071 2.466c.27.32.659.498 1.065.498.264 0 .534-.075.78-.233.3-.192.497-.511.581-.858.412-1.697.663-3.863.815-5.746h2.158c-.475 5.319-1.756 9.01-1.88 9.358-.168.471-.078.979.241 1.359l3.098 3.689.401.476a1.388 1.388 0 0 0 2.127 0l.777-.925c.964-1.145 2.229-2.651 2.722-3.24.319-.381.41-.889.242-1.36-.125-.347-1.406-4.038-1.881-9.357h2.098c.151 1.883.402 4.048.813 5.745.084.347.282.667.583.86.246.157.516.232.78.232.405 0 .795-.178 1.064-.498l2.071-2.466a1.4 1.4 0 0 0 .178-1.512 14.5 14.5 0 0 1-1.009-2.659 2.749 2.749 0 0 0-.235-5.012c.245-1.231.702-2.192 1.196-2.783.222-.267.802-.87 1.367-.709.292.085.38.241.219 1.658-.155 1.368-.367 3.241 1.242 4.532a1.39 1.39 0 0 0 1.922-.201 704 704 0 0 1 5.494-6.411c.901-1.044 1.631-1.889 1.986-2.308a1.39 1.39 0 0 0 .011-1.78"/>
  <path class="blue-font" d="M108.247 105.717a2.05 2.05 0 0 1-.996.672 4.5 4.5 0 0 1-1.415.204h-2.064v-4.152h2.064q.6 0 1.092.107.49.108.876.349.384.24.6.624t.215.912q0 .816-.372 1.284m-4.475-9.636h1.679q1.057 0 1.632.432.577.432.577 1.296 0 .576-.264.972a1.7 1.7 0 0 1-.756.612q-.493.216-1.189.216h-1.679zm6.984 5.268a6.5 6.5 0 0 0-1.384-.631c.696-.316 1.271-.729 1.707-1.253q.781-.935.781-2.256 0-1.44-.781-2.388-.779-.948-2.111-1.416-1.334-.468-3.084-.468h-6.168v16.8h6.575q1.993 0 3.456-.493 1.465-.492 2.269-1.523.804-1.033.804-2.712 0-1.273-.564-2.173a4.7 4.7 0 0 0-1.5-1.487m12.096 4.067q0 .65-.24 1.105a1.7 1.7 0 0 1-.661.696q-.42.239-1.019.239-.89 0-1.248-.54-.36-.538-.36-1.5v-6.719h-3.792v7.104q0 1.968.948 3.084.948 1.115 3.012 1.115 1.224 0 2.04-.515a3.9 3.9 0 0 0 1.32-1.405v1.657h3.624v-11.04h-3.624zm13.727-6.983q-1.224 0-2.051.504a3.55 3.55 0 0 0-1.308 1.416v-1.656h-3.648v11.04h3.648v-6.72q0-.648.239-1.105.24-.455.672-.695t1.009-.24q.863 0 1.235.527.372.53.372 1.513v6.72h3.769v-7.104q0-1.992-.937-3.096-.936-1.104-3-1.104m15.025 7.307q-.384.637-.973.972a2.4 2.4 0 0 1-1.212.336 2.57 2.57 0 0 1-2.279-1.331q-.36-.637-.36-1.5 0-.864.36-1.5a2.57 2.57 0 0 1 2.279-1.332 2.4 2.4 0 0 1 1.212.336q.59.336.973.972.384.635.384 1.524 0 .888-.384 1.523m.384-5.272a4.6 4.6 0 0 0-1.308-1.315q-1.069-.696-2.46-.696-1.344 0-2.544.672t-1.956 1.943q-.757 1.273-.757 3.145 0 1.847.757 3.132.755 1.283 1.956 1.956 1.2.671 2.544.672 1.391 0 2.46-.696a4.6 4.6 0 0 0 1.308-1.322v1.778h3.624v-18.72h-3.624zm22.103 5.272q-.384.637-.973.972a2.4 2.4 0 0 1-1.211.336 2.57 2.57 0 0 1-2.28-1.331q-.36-.637-.36-1.5 0-.864.36-1.5t.96-.984 1.32-.348q.624 0 1.211.336.59.336.973.972.384.635.384 1.524 0 .888-.384 1.523m.384-5.272a4.6 4.6 0 0 0-1.308-1.315q-1.069-.696-2.46-.696-1.344 0-2.544.672t-1.956 1.943q-.757 1.273-.756 3.145 0 1.847.756 3.132.756 1.283 1.956 1.956 1.2.671 2.544.672 1.391 0 2.46-.696a4.6 4.6 0 0 0 1.308-1.322v1.778h3.624v-18.72h-3.624zm9.972 1.864q.275-.73.828-1.092.552-.36 1.368-.36.648 0 1.128.288.48.29.744.817c.141.283.21.618.238.984h-4.471c.046-.225.094-.448.165-.637m3.912 4.668q-.684.36-1.644.361-.84 0-1.416-.372-.577-.373-.864-1.092a4 4 0 0 1-.226-.912h8.409q.049-.168.048-.42v-.517q0-1.775-.695-3.023a4.6 4.6 0 0 0-2.017-1.908q-1.32-.66-3.239-.66-1.92 0-3.324.696-1.405.696-2.148 1.992-.745 1.295-.745 3.072 0 1.752.769 3.048.768 1.295 2.172 2.004 1.403.707 3.324.708 2.111 0 3.588-.817 1.475-.815 2.34-2.448l-3.24-.792a2.67 2.67 0 0 1-1.092 1.08m14.267-8.327a2.9 2.9 0 0 0-1.152-.24q-.912 0-1.752.6c-.397.283-.72.665-1.008 1.093v-1.429h-3.576v11.04h3.576v-5.449q0-.79.216-1.343.216-.554.624-.84.408-.289.936-.288.48 0 .804.168.324.167.612.456l1.56-3.096q-.289-.432-.84-.672m18.168 1.344q-.697.552-1.92.552h-1.776v-4.296h1.776q1.223 0 1.92.552t.696 1.608q0 1.032-.696 1.584m1.668-6.42q-1.453-.66-3.588-.66h-5.832v16.8h4.056v-5.832h1.776q2.135 0 3.588-.661 1.451-.659 2.196-1.895.744-1.236.744-2.916 0-1.728-.744-2.952-.745-1.224-2.196-1.884m9.444.996q.143-.36.395-.528t.612-.168q.313 0 .588.144.276.145.516.456l1.465-2.664a4.5 4.5 0 0 0-.649-.516 4.3 4.3 0 0 0-.984-.48q-.576-.204-1.416-.204-1.367 0-2.292.48a3.2 3.2 0 0 0-1.392 1.368q-.467.888-.467 2.136v4.08h-1.393v3h1.393v8.04h3.479v-8.04h2.664v-3h-2.664v-3.168q0-.576.145-.936m12.456 11.147q-.384.637-.973.972a2.4 2.4 0 0 1-1.212.336 2.57 2.57 0 0 1-2.279-1.331q-.36-.637-.361-1.5 0-.864.361-1.5a2.57 2.57 0 0 1 2.279-1.332q.624 0 1.212.336.59.336.973.972.384.635.383 1.524 0 .888-.383 1.523m.408-5.239a4.6 4.6 0 0 0-1.332-1.348q-1.069-.696-2.46-.696-1.345 0-2.544.672t-1.956 1.943q-.757 1.273-.757 3.145 0 1.847.757 3.132.755 1.283 1.956 1.956 1.2.671 2.544.672 1.391 0 2.46-.696a4.6 4.6 0 0 0 1.332-1.355v1.811h3.599v-11.04h-3.599zm14.64 5.239a2.7 2.7 0 0 1-.973.972 2.4 2.4 0 0 1-1.212.336 2.57 2.57 0 0 1-2.279-1.331q-.361-.637-.361-1.5 0-.864.361-1.5a2.57 2.57 0 0 1 2.279-1.332q.623 0 1.212.336.588.336.973.972.383.635.383 1.524 0 .888-.383 1.523m.383-5.272a4.6 4.6 0 0 0-1.307-1.315q-1.07-.696-2.46-.696-1.345 0-2.544.672t-1.956 1.943q-.757 1.273-.757 3.145 0 1.847.757 3.132.755 1.283 1.956 1.956 1.2.671 2.544.672 1.39 0 2.46-.696a4.6 4.6 0 0 0 1.307-1.322v1.778h3.624v-18.72h-3.624zm10.704-5.875q.144-.36.396-.528t.612-.168q.313 0 .588.144.276.145.516.456l1.465-2.664a4.6 4.6 0 0 0-.649-.516 4.3 4.3 0 0 0-.984-.48q-.576-.204-1.416-.204-1.367 0-2.292.48a3.2 3.2 0 0 0-1.392 1.368q-.467.888-.468 2.136v4.08h-1.392v3h1.392v8.04h3.48v-8.04h2.664v-3h-2.664v-3.168q0-.576.144-.936m6.36-1.992a2.2 2.2 0 0 0-1.488.54q-.624.54-.624 1.404t.624 1.416 1.488.552q.889 0 1.5-.552.612-.552.612-1.416t-.612-1.404q-.611-.54-1.5-.54m-1.752 6.096h3.505v11.04h-3.505zm13.727-.264q-1.224 0-2.051.504a3.55 3.55 0 0 0-1.308 1.416v-1.656h-3.648v11.04h3.648v-6.72q0-.648.239-1.105.24-.455.672-.695t1.009-.24q.863 0 1.235.527.372.53.372 1.513v6.72h3.769v-7.104q0-1.992-.937-3.096-.936-1.104-3-1.104m15.025 7.307q-.384.637-.973.972a2.4 2.4 0 0 1-1.212.336 2.57 2.57 0 0 1-2.279-1.331q-.36-.637-.36-1.5 0-.864.36-1.5a2.57 2.57 0 0 1 2.279-1.332 2.4 2.4 0 0 1 1.212.336q.59.336.973.972.384.635.384 1.524 0 .888-.384 1.523m.384-5.272a4.6 4.6 0 0 0-1.308-1.315q-1.069-.696-2.46-.696-1.344 0-2.544.672t-1.956 1.943q-.757 1.273-.757 3.145 0 1.847.757 3.132.755 1.283 1.956 1.956 1.2.671 2.544.672 1.391 0 2.46-.696a4.6 4.6 0 0 0 1.308-1.322v1.778h3.624v-18.72h-3.624zm9.971 1.864q.276-.73.828-1.092.553-.36 1.369-.36.647 0 1.127.288.48.29.745.817c.141.283.21.618.237.984h-4.47c.046-.225.093-.448.164-.637m3.912 4.668q-.684.36-1.643.361-.84 0-1.416-.372-.577-.373-.864-1.092a4 4 0 0 1-.226-.912h8.409q.048-.168.048-.42v-.517q0-1.775-.695-3.023a4.6 4.6 0 0 0-2.017-1.908q-1.32-.66-3.239-.66-1.92 0-3.324.696-1.405.696-2.149 1.992-.744 1.295-.744 3.072 0 1.752.769 3.048.768 1.295 2.171 2.004 1.404.707 3.325.708 2.11 0 3.588-.817 1.475-.815 2.339-2.448l-3.24-.792a2.66 2.66 0 0 1-1.092 1.08m14.269-8.327a2.9 2.9 0 0 0-1.152-.24q-.913 0-1.752.6c-.397.283-.72.665-1.008 1.093v-1.429h-3.576v11.04h3.576v-5.449q0-.79.216-1.343.214-.554.624-.84.408-.289.935-.288.481 0 .805.168.324.167.611.456l1.561-3.096q-.29-.432-.84-.672m13.151-3.408-3.755 1.808.563-4.136h-3.312l.563 4.136-3.755-1.808-1.032 3.144 4.105.758-2.905 3.01 2.712 1.943 1.968-3.672 1.968 3.672 2.712-1.943-2.905-3.01 4.106-.758zm5.808-2.664q-.863 0-1.487.54t-.624 1.404.624 1.416a2.17 2.17 0 0 0 1.487.552q.889 0 1.5-.552.612-.552.612-1.416t-.612-1.404q-.611-.54-1.5-.54m-1.752 6.096h3.505v11.04H349.6zm13.727-.264q-1.224 0-2.051.504a3.55 3.55 0 0 0-1.308 1.416v-1.656h-3.648v11.04h3.648v-6.72q0-.648.239-1.105a1.67 1.67 0 0 1 .672-.695q.432-.24 1.009-.24.863 0 1.235.527.372.53.372 1.513v6.72h3.769v-7.104q0-1.992-.937-3.096-.936-1.104-3-1.104m14.041 0q-1.224 0-2.052.504a3.55 3.55 0 0 0-1.308 1.416v-1.656h-3.648v11.04h3.648v-6.72q0-.648.239-1.105a1.67 1.67 0 0 1 .672-.695q.432-.24 1.009-.24.863 0 1.235.527.372.53.372 1.513v6.72h3.769v-7.104q0-1.992-.936-3.096-.937-1.104-3-1.104m10.332 3.899q.275-.73.828-1.092.552-.36 1.368-.36.647 0 1.128.288.48.29.744.817c.141.283.21.618.238.984h-4.471c.046-.225.094-.448.165-.637m3.912 4.668q-.684.36-1.644.361-.84 0-1.416-.372-.577-.373-.864-1.092a4 4 0 0 1-.226-.912h8.409q.049-.168.048-.42v-.517q0-1.775-.695-3.023a4.6 4.6 0 0 0-2.017-1.908q-1.32-.66-3.239-.66-1.92 0-3.324.696t-2.149 1.992q-.744 1.295-.744 3.072 0 1.752.769 3.048.768 1.295 2.172 2.004 1.403.707 3.324.708 2.11 0 3.588-.817 1.475-.815 2.34-2.448l-3.241-.792a2.66 2.66 0 0 1-1.091 1.08m16.788-7.463q-.936-1.104-3-1.104-1.224 0-2.052.504a3.56 3.56 0 0 0-1.308 1.416v-1.656h-3.648v11.04h3.648v-6.72q0-.648.24-1.105.24-.455.672-.695t1.008-.24q.863 0 1.236.527.372.53.372 1.513v6.72h3.768v-7.104q0-1.992-.936-3.096M116.996 60.905v-12.48h7.02q1.906 0 3.51.26t2.86.953q1.255.694 1.951 1.821.693 1.127.693 2.859 0 2.688-1.214 4.117-1.215 1.43-3.249 1.95-2.038.52-4.551.52zm0-36.48h5.627q3.661 0 5.492 1.339 1.83 1.341 1.83 4.198 0 1.874-.847 3.215-.85 1.34-2.456 2.053-1.608.715-4.019.715h-5.627zm22.835 48.183q5.616-1.739 8.647-5.572 3.03-3.832 3.031-10.074 0-4.812-2.184-8.246-2.185-3.43-5.839-5.615a26.7 26.7 0 0 0-4.383-2.08q3.525-1.707 5.809-4.429 3.031-3.609 3.032-8.691-.001-5.348-3.032-8.869t-8.246-5.305q-5.214-1.782-11.9-1.782h-25.05v62.401h26.654q7.844 0 13.461-1.738m51.276-14.216q-1.246 2.045-3.201 3.156-1.957 1.113-4 1.112a8.24 8.24 0 0 1-4.268-1.156q-1.957-1.155-3.111-3.29-1.157-2.134-1.156-4.801-.001-2.754 1.156-4.845 1.154-2.088 3.111-3.245a8.24 8.24 0 0 1 4.268-1.156q2.043 0 4 1.112 1.955 1.11 3.201 3.156 1.244 2.045 1.245 4.978 0 2.934-1.245 4.979m.812-19.036s-2.496-3.495-4.368-4.702q-4.001-2.577-9.157-2.578-4.801 0-9.202 2.445-4.4 2.446-7.202 7.157-2.8 4.714-2.8 11.735 0 6.936 2.8 11.692 2.801 4.756 7.202 7.201t9.202 2.445q5.156-.001 9.157-2.579c1.872-1.206 3.468-2.786 5.328-4.724v6.898h14.4l.01-64.792h-15.37zm43.2-13.971h5.637q3.988 0 6.156 1.735 2.167 1.734 2.168 4.942-.001 3.297-2.168 5.029-2.168 1.735-6.156 1.734h-5.637zm0 27.84h5.734q8.467.001 13.981-2.47 5.511-2.468 8.203-7.144t2.691-11.026q0-6.439-2.691-11.026t-8.203-7.101q-5.514-2.513-13.981-2.513h-23.014v62.401h17.28z"/>
</svg>
